<svg width="29" height="31" viewBox="0 0 29 31" fill="none" xmlns="http://www.w3.org/2000/svg">
<path d="M3.54377 17.12C3.26377 17.12 3.04877 17.04 2.89877 16.88C2.74877 16.72 2.67377 16.5 2.67377 16.22V7.205C2.67377 6.915 2.75377 6.695 2.91377 6.545C3.07377 6.385 3.29377 6.305 3.57377 6.305C3.82377 6.305 4.01877 6.355 4.15877 6.455C4.30877 6.545 4.44377 6.705 4.56377 6.935L8.26877 13.79H7.78877L11.4938 6.935C11.6138 6.705 11.7438 6.545 11.8838 6.455C12.0238 6.355 12.2188 6.305 12.4688 6.305C12.7488 6.305 12.9638 6.385 13.1138 6.545C13.2638 6.695 13.3388 6.915 13.3388 7.205V16.22C13.3388 16.5 13.2638 16.72 13.1138 16.88C12.9738 17.04 12.7588 17.12 12.4688 17.12C12.1888 17.12 11.9738 17.04 11.8238 16.88C11.6738 16.72 11.5988 16.5 11.5988 16.22V9.275H11.9288L8.77877 15.02C8.67877 15.19 8.57377 15.315 8.46377 15.395C8.35377 15.475 8.20377 15.515 8.01377 15.515C7.82377 15.515 7.66877 15.475 7.54877 15.395C7.42877 15.305 7.32377 15.18 7.23377 15.02L4.05377 9.26H4.41377V16.22C4.41377 16.5 4.33877 16.72 4.18877 16.88C4.04877 17.04 3.83377 17.12 3.54377 17.12Z" fill="#292D32"/>
<path d="M17 11.5H26" stroke="#292D32" stroke-width="1.5" stroke-linecap="round" stroke-linejoin="round"/>
<path d="M17 16.5H26" stroke="#292D32" stroke-width="1.5" stroke-linecap="round" stroke-linejoin="round"/>
<path d="M8 21.5H26" stroke="#292D32" stroke-width="1.5" stroke-linecap="round" stroke-linejoin="round"/>
<path d="M8 26.5H26" stroke="#292D32" stroke-width="1.5" stroke-linecap="round" stroke-linejoin="round"/>
</svg>
